# xmcd
#
# Track frame offsets:
#	150
#	16759
#	68291
#	93183
#	124277
#	166103
#	196599
#	239987
#	267615
#
# Disc length: 3807 seconds
#
# Revision: 2
# Processed by: cddbd v1.5.1PL2 Copyright (c) Steve Scherf et al.
# Submitted via: EasyCDDAExtractor 8.0.2.1
#
DISCID=6f0edd09
DTITLE=Saxon - Longhorn Stuttgart 29-11-99 Disc 2
DYEAR=1999
DGENRE=Hard Rock
TTITLE0=Iron Wheels
TTITLE1=Conquistador
TTITLE2=Crusader
TTITLE3=Princess Of The Night
TTITLE4=Sea Of Life
TTITLE5=Solid Ball Of Rock
TTITLE6=Wheels Of Steel
TTITLE7=747 (Strangers In The Night)
TTITLE8=And The Band Played On
EXTD=
EXTT0=
EXTT1=
EXTT2=
EXTT3=
EXTT4=
EXTT5=
EXTT6=
EXTT7=
EXTT8=
PLAYORDER=
